<svg width="64" height="64" viewBox="0 0 64 64" fill="none" xmlns="http://www.w3.org/2000/svg">
<path d="M32.005 0H30.1387H30.1057H29.8847H29.8507H29.8157H29.7807H29.7587H29.7426H29.7206H29.7046H29.6826H29.6676H29.6436H29.6066H29.5706H29.5346H29.4976H29.4606L29.3606 0.008H29.3236H29.2866H29.2486C28.5065 0.075 27.7733 0.163 27.0482 0.274L27.3573 2.25C28.8975 2.048 30.4518 1.964 32.005 2V0ZM22.1635 1.541C20.5762 2.052 19.032 2.688 17.5447 3.441L18.4449 5.225C19.8391 4.518 21.2863 3.922 22.7736 3.441L22.1595 1.541H22.1635ZM13.2801 6.041C11.9279 7.019 10.6547 8.101 9.47048 9.277L10.8787 10.697C11.9899 9.596 13.1841 8.583 14.4513 7.667L13.2801 6.046C13.2801 6.046 13.2801 6.041 13.2801 6.041ZM6.20597 13.059C5.93893 13.425 5.67789 13.797 5.42085 14.174L5.38884 14.222L5.36784 14.254L5.35684 14.27L5.33583 14.301L5.32583 14.316L5.31583 14.331L5.30583 14.346L5.28583 14.376L5.27582 14.391L5.26582 14.406L5.25582 14.421L5.24582 14.436L5.23682 14.45L5.22782 14.464L5.21882 14.478L5.20881 14.493L5.19981 14.507L5.19081 14.52L5.18181 14.534L5.17281 14.548L5.16381 14.561L5.15481 14.575L5.1468 14.588L5.1378 14.602L5.1288 14.616L5.1208 14.628L5.1118 14.642L5.1028 14.656L5.0938 14.669L5.08479 14.683L5.07679 14.696L5.06779 14.71L5.05879 14.724L5.05179 14.736L5.04379 14.749L5.03679 14.76L5.02979 14.772V14.777L5.02178 14.79L5.01478 14.801L5.00678 14.814L4.99878 14.826L4.99178 14.837L4.98378 14.85L4.97678 14.86L4.96878 14.872V14.877L4.96078 14.89L4.95477 14.9L4.94677 14.913L4.93977 14.924V14.93L4.93377 14.94V14.945L4.92577 14.958V14.963L4.91977 14.972V14.978L4.91277 14.989V14.995L4.80075 15.14V15.145L4.79475 15.154V15.159L4.78675 15.172V15.178L4.78075 15.187V15.195L4.77475 15.205V15.211L4.76674 15.223V15.228L4.76074 15.238L4.75274 15.251V15.257L4.74574 15.268V15.274L4.73974 15.284V15.289L4.73174 15.301V15.306L4.72574 15.316V15.322L4.71874 15.333V15.339L4.71074 15.351V15.357L4.70474 15.366V15.371L4.69673 15.383V15.389L4.68973 15.401L4.68273 15.412V15.417L4.67473 15.43V15.435L4.66873 15.445V15.452L4.66173 15.463V15.469L4.65373 15.482V15.487L4.64873 15.496V15.502L4.64173 15.514V15.52L4.63572 15.53V15.537L4.62972 15.547V15.553L4.62172 15.566V15.571L4.61572 15.58V15.586L4.60872 15.598V15.604L4.60272 15.614V15.622L4.59772 15.631V15.637L4.59072 15.649V15.656V15.664V15.672L4.58472 15.682V15.688L4.57771 15.701V15.706L4.57171 15.715V15.72L4.56371 15.733V15.738L4.55671 15.749V15.756L4.55071 15.766V15.772L4.54371 15.784V15.79L4.53871 15.799V15.806L4.53171 15.817V15.823L4.52471 15.836V15.842L4.51971 15.851V15.857L4.51271 15.869V15.875L4.5067 15.885V15.892L4.5007 15.902V15.908L4.4937 15.92V15.926L4.4887 15.935V15.941L4.4817 15.953V15.959L4.4747 15.97V15.976L4.4687 15.986V15.991L4.4617 16.004V16.009L4.4557 16.02V16.026L4.4487 16.037V16.043L4.44169 16.056V16.061L4.43569 16.071L4.42869 16.084V16.089L4.42169 16.101L4.41569 16.112V16.118L4.40869 16.131V16.136L4.40269 16.147V16.152L4.39569 16.164V16.17L4.38869 16.183V16.188L4.38368 16.198V16.203L4.37668 16.216V16.221L4.36968 16.233V16.238L4.36368 16.249V16.255L4.35668 16.268V16.273L4.35068 16.283L4.34368 16.296V16.301L4.33668 16.314V16.319L4.33068 16.329V16.334L4.32368 16.347L4.31667 16.359L4.30967 16.372L4.30167 16.386L4.29567 16.398L4.28767 16.412L4.28067 16.425L4.27467 16.437L4.00063 16.5L3.99362 16.512L3.98562 16.526L3.97762 16.54L3.97062 16.553L3.96262 16.568L3.95462 16.582L3.94762 16.595L3.93962 16.609L3.93161 16.623L3.92361 16.638L3.91561 16.653L3.90861 16.667L3.90061 16.682L3.88361 16.713L3.87561 16.728L3.8676 16.743L3.8596 16.759L3.8426 16.791L3.8346 16.807L3.8266 16.823L3.8176 16.839L3.80859 16.855L3.79959 16.871L3.79159 16.887L3.77459 16.919L3.76659 16.935L3.75859 16.951L3.74959 16.967L3.74058 16.983L3.73158 16.999L3.72258 17.016L3.70458 17.049L3.69558 17.066L3.68658 17.083L3.67757 17.1L3.65957 17.134L3.65057 17.151L3.63257 17.185L3.61456 17.219L5.39084 18.139C6.10995 16.751 6.93708 15.421 7.86323 14.162L6.20597 13.059ZM1.62625 21.9C1.46323 22.389 1.31221 22.884 1.17318 23.384L1.16318 23.421L1.15318 23.458L1.13818 23.514L1.12818 23.551L1.11817 23.587V23.605V23.623V23.641L1.10917 23.676V23.693V23.709V23.726V23.742V23.759V23.775V23.791V23.807V23.821V23.837V23.851V23.867V23.883V23.897V23.912V23.924V23.929V23.944V23.949V23.962V23.977V23.983V23.996V24.003V24.014V24.021V24.035V24.041V24.052V24.058V24.072V24.079V24.09V24.098V24.109V24.116V24.128V24.136V24.145V24.153V24.166V24.174V24.183V24.193V24.203V24.211V24.218V24.232V24.24V24.248V24.257V24.27V24.278V24.286V24.299V24.308V24.315V24.326V24.336V24.345V24.353V24.366V24.374V24.383V24.39V24.404V24.411V24.42V24.433V24.442V24.448V24.463V24.47V24.479V24.485V24.5V24.506V24.515V24.522V24.537V24.543V24.559V24.564V24.574V24.58V24.596V24.601V24.611V24.617V24.633V24.7V24.71V24.731V24.75V24.76V24.766V24.782V24.8V24.81V24.828L0.800125 24.868V24.889V24.9V24.919V24.93V24.949V24.954L0.76812 25V25.005V25.023V25.033V25.05V25.055V25.065V25.082V25.1L0.761119 25.132V25.137V25.153V25.159V25.169V25.175V25.192V25.202V25.221V25.227V25.243V25.249V25.259V25.265V25.281V25.3V25.31V25.316V25.331V25.337V25.346V25.356V25.368V25.375V25.388V25.396V25.405V25.412V25.426V25.433V25.442V25.45V25.463V25.471V25.48V25.493V25.502V25.51V25.522V25.531V25.539V25.549V25.559V25.57V25.577V25.59V25.598V25.608V25.615V25.629V25.636V25.647V25.653V25.668V25.675V25.687V25.694V25.706V25.712V25.727V25.733V25.745V25.75V25.765V25.77V25.782V25.797V25.8V25.815V25.828V25.844V25.859V25.876V25.892V25.91V25.928V25.945V25.963V25.982V26.001L0.754118 26.038C0.712111 26.263 0.672105 26.49 0.634099 26.717L2.60741 27.043C2.86245 25.501 3.23751 23.982 3.72958 22.499L1.82929 21.868L1.62625 21.9ZM0 31.728V31.761V31.907V32V32.205V33.93V33.963V34.081V34.1V34.133V34.266V34.299V34.332V34.388V34.408V34.426V34.447V34.463V34.495V34.513V34.533V34.628V34.66V34.678V34.697V34.92V34.937V35.369V35.384V35.406V35.421V35.443V35.457V35.471V35.5V35.515V35.537V35.552V35.573V35.589V35.603V35.62V35.636V35.67V35.686V35.703V35.719V35.754V35.789V35.824C0.0350055 36.115 0.0730114 36.404 0.116018 36.692L2.09533 36.4C1.95731 34.938 1.9253 33.467 2.00031 32V31.745L0 31.728ZM3.36653 40.983L1.45823 41.583C1.53724 41.833 1.61825 42.082 1.70227 42.33L1.75327 42.478C1.79628 42.601 1.83929 42.724 1.88329 42.847C2.29736 43.997 2.77743 45.122 3.32152 46.216L5.1128 45.326C4.41769 43.927 3.8336 42.475 3.36653 40.983ZM7.51817 49.344L5.88892 50.5C6.85007 51.854 7.91524 53.132 9.07442 54.322L9.08742 54.336L10.5196 52.936C9.42747 51.815 8.42432 50.612 7.51917 49.336L7.51817 49.344ZM14.0402 56.032L12.84 57.632C13.8472 58.386 14.8983 59.08 15.9875 59.711L16.0395 59.741L16.0695 59.758L16.0875 59.768L16.1165 59.785L16.1345 59.795L16.1445 59.801L16.1605 59.81L16.1755 59.819H16.1845L16.1995 59.827H16.2085H16.2155L16.2275 59.834H16.2335L16.2465 59.841H16.2535H16.2615H16.2675L16.2795 59.848H16.2865H16.2935L16.3055 59.855H16.3126H16.3206L16.3306 59.86H16.3386H16.3456L16.3576 59.867H16.3636H16.3726H16.3786L16.3916 59.874H16.3976L16.4076 59.88H16.4156L16.4246 59.885H16.4306L16.4436 59.892H16.4496L16.4596 59.897H16.4666L16.4776 59.903H16.4846L16.4966 59.91H16.5016L16.5116 59.916L16.5246 59.923L16.5376 59.93L16.5496 59.937L16.5636 59.945L16.5756 59.952L16.5896 59.96L16.6036 59.968L16.6166 59.975L16.6316 59.983L16.6466 59.991L16.6626 60L16.6786 60.009L16.6946 60.018L16.7106 60.027L16.7266 60.036L16.7426 60.045L16.7586 60.054L16.7916 60.072L16.8086 60.081L16.8256 60.09L16.8426 60.099L16.8756 60.117L16.8926 60.126L16.9266 60.144L16.9777 60.171L18.0028 58.538C16.6206 57.807 15.2984 56.969 14.0462 56.032H14.0402ZM22.2955 60.4L21.6484 62.293C22.8966 62.719 24.1708 63.068 25.462 63.336L25.5 63.344L25.538 63.352H25.557L25.593 63.359L25.628 63.366H25.645H25.661H25.678H25.694H25.711H25.728H25.742H25.758H25.763H25.776H25.791H25.797H25.81H25.816H25.828H25.835H25.849H25.855H25.865H25.904H25.9181H25.9251H25.9351H25.9441H25.9561H25.9631H25.9731H25.9851H25.9941H26.0021H26.0121H26.0231H26.0301H26.0401H26.0511H26.0611H26.0671H26.0851H26.0961H26.1151L26.1491 63.372L26.1851 63.379H26.2091L26.2461 63.386L26.4691 63.425L26.8112 61.455C25.281 61.221 23.7707 60.868 22.2955 60.4ZM36.1737 61.718C34.7924 61.907 33.3992 62.002 32.005 62C31.835 62 31.6649 62 31.4949 62L31.4619 64H31.5809H34.3894H34.4214H34.5284H34.5604H34.5794H34.6124H34.6664H34.6994H34.7174H34.7514H34.7694H34.8024H34.8524H34.9045H34.9385L35.0385 63.99C35.5095 63.945 35.9766 63.891 36.4387 63.826L36.1636 61.845L36.1737 61.718ZM45.107 59C43.7018 59.683 42.2446 60.254 40.7494 60.709L41.3315 62.623C42.9267 62.138 44.4819 61.528 45.9822 60.799L45.107 59ZM52.7692 53.66C51.6401 54.742 50.4289 55.735 49.1457 56.63L50.2899 58.271L50.2989 58.265H50.3039L50.3159 58.257H50.3219L50.3309 58.25H50.3379L50.3469 58.244H50.3529L50.3649 58.236H50.3699L50.3779 58.23L50.3859 58.225L50.3949 58.219H50.4019L50.4099 58.213L50.4199 58.206H50.4259H50.4329L50.4439 58.198H50.4509L50.4579 58.193L50.4679 58.186H50.4739L50.4819 58.181L50.4919 58.174L50.4989 58.169H50.5049L50.5159 58.161H50.5229L50.5299 58.156H50.5359L50.5479 58.147L50.5619 58.137L50.5699 58.131L50.5839 58.121L50.5919 58.115L50.6099 58.102L50.6259 58.091L50.6349 58.084L50.6519 58.072L50.6789 58.052L50.6949 58.04L50.7229 58.02L50.8079 57.9L50.8369 57.879L50.8559 57.865L50.885 57.844C51.296 57.543 51.6991 57.234 52.0941 56.915L52.1401 56.878L52.2142 56.818L52.2872 56.758L52.3322 56.721L52.3592 56.699L52.3742 56.687L52.4012 56.665L52.4182 56.651L52.4272 56.644L52.4432 56.63L52.4602 56.616L52.4692 56.609L52.4852 56.596L52.5112 56.574L52.5262 56.561L52.5522 56.539L52.5682 56.526L52.5762 56.519L52.5902 56.507L52.6152 56.486L52.6272 56.476L52.6352 56.47L52.6482 56.459L52.7082 56.4L52.7162 56.393L52.7282 56.382L52.7522 56.361L52.7642 56.351L52.7712 56.345L52.7782 56.339L52.7882 56.331H52.7932L52.8042 56.322L52.8103 56.317L52.8173 56.311L52.8233 56.306L52.8333 56.297H52.8393L52.8453 56.291L52.8553 56.283L52.8623 56.277L52.8683 56.272L52.8773 56.264L52.8843 56.258L52.8903 56.253L52.9003 56.245L52.9063 56.24L52.9133 56.234L52.9203 56.228L52.9293 56.22H52.9353L52.9433 56.213L52.9513 56.206L52.9583 56.2H52.9643L52.9743 56.191L52.9803 56.185L53.0083 56.146L53.0163 56.139L53.0243 56.132L53.0303 56.127L53.0403 56.118H53.0463L53.0533 56.112L53.0603 56.106L53.0693 56.098H53.0743L53.0833 56.09L53.0903 56.084L53.0983 56.077H53.1033L53.1133 56.068L53.1193 56.063L53.1263 56.057L53.1333 56.051L53.1413 56.044H53.1463L53.1573 56.035L53.1713 56H53.1763L53.1863 55.991H53.1913L53.2013 55.982L53.2093 55.975L53.2203 55.966H53.2253L53.2343 55.958H53.2393L53.2483 55.95L53.2593 55.94L53.2683 55.932L53.2793 55.922L53.2903 55.912L53.2993 55.904L53.3103 55.894L53.3203 55.885L53.3313 55.875L53.3433 55.865L53.3533 55.856L53.3653 55.845L53.3773 55.834L53.3873 55.825L53.3993 55.815L53.4103 55.805L53.4213 55.795L53.5084 55.7L53.5204 55.689L53.5334 55.678L53.5454 55.667L53.5564 55.657L53.5684 55.646L53.5804 55.635L53.5924 55.624L53.6044 55.613L53.6154 55.603L53.6274 55.592L53.6394 55.581L53.6504 55.571L53.6624 55.56L53.6744 55.549L53.6854 55.538L53.6974 55.527L53.7094 55.516L53.7224 55.504L53.7354 55.492L53.7474 55.481L53.7594 55.469L53.7724 55.457L53.7844 55.446L53.7964 55.435L53.8084 55.424L53.8214 55.412L53.8334 55.4L53.8444 55.389L53.8564 55.378L53.8684 55.366L53.8804 55.354L53.8934 55.342L53.9064 55.33L53.9194 55.318L54.0084 55.237L54.0204 55.225L54.0334 55.213L54.0594 55.189L54.0724 55.177L54.0855 55.165L54.0985 55.153L54.1105 55.141L54.1215 55.13L54.1335 55.118L52.7502 53.674L52.7692 53.66ZM58.4291 46.231C57.686 47.607 56.8369 48.922 55.8897 50.166L57.481 51.378C57.839 50.911 58.1841 50.431 58.5161 49.938L58.5491 49.89L58.5702 49.859L58.5802 49.844L58.5902 49.829L58.6002 49.814L58.6102 49.8L58.6192 49.787L58.6282 49.773L58.6372 49.76L58.6462 49.747L58.6552 49.734L58.6622 49.723L58.6702 49.711V49.705L58.6772 49.694V49.688L58.6832 49.679V49.673L58.6912 49.661V49.655L58.6962 49.647L58.7022 49.637V49.63V49.623L58.7082 49.614L58.7142 49.605V49.598L58.7212 49.587V49.58L58.7262 49.572V49.567L58.7352 49.554L58.7532 49.527L58.7632 49.511L58.7822 49.482L58.8012 49.452C59.2723 48.728 59.7133 47.985 60.1254 47.222L58.3651 46.272L58.4291 46.231ZM61.5226 37.431C61.2416 38.968 60.8405 40.481 60.3224 41.955L62.2097 42.618C62.2927 42.383 62.3727 42.147 62.4498 41.909L62.4608 41.875L62.4718 41.841L62.4788 41.818V41.807L62.4848 41.788L62.4948 41.756L62.4998 41.739V41.73V41.724V41.709V41.703V41.694V41.688V41.674V41.667V41.659V41.646V41.638V41.63V41.619V41.61V41.602V41.592V41.583V41.573V41.566V41.552V41.546V41.535V41.529V41.515V41.509V41.498V41.492V41.478V41.472V41.459V41.452V41.441V41.435V41.421V41.415V41.403V41.388V41.383V41.369V41.354V41.338V41.324V41.308V41.294V41.278V41.262V41.246L62.5048 41.229V41.213L62.5098 41.196L62.5198 41.162L62.5298 41.127L62.5348 41.109L62.5398 41.091L62.7258 41L62.7358 40.964L62.7518 40.909L62.7628 40.872L62.7738 40.835C62.9368 40.267 63.0839 39.693 63.2159 39.113L63.2249 39.075L63.2329 39.038V39.02V39.002V38.984L63.2409 38.948V38.93V38.913V38.896V38.88V38.863V38.846V38.83V38.814V38.8V38.784V38.77V38.756V38.749V38.734V38.729V38.718V38.67V38.656V38.649V38.639V38.632V38.619V38.612V38.602V38.591V38.582V38.574V38.565V38.553V38.545V38.536V38.523V38.514V38.507V38.491V38.485V38.475V38.47V38.453V38.448L63.2479 38.415L63.2549 38.38V38.357C63.2929 38.169 63.3289 37.979 63.3639 37.789L61.3966 37.43L61.5226 37.431ZM63.742 27.831L61.7587 28.089C61.9267 29.386 62.0097 30.692 62.0097 32C62.0097 32.255 62.0067 32.51 61.9997 32.764L64 32.814C64 32.737 64 32.659 64 32.581V32.357V32.346V32.335V32.324V32.024V32V31.071V31.048V30.969V30.921V30.9V30.862V30.85V30.799V30.786V30.735C63.962 29.752 63.88 28.781 63.755 27.823L63.742 27.831ZM60.9255 18.279L59.1192 19.138C59.7893 20.546 60.3474 22.005 60.7895 23.5L62.7078 22.935C62.2367 21.336 61.6396 19.776 60.9235 18.27L60.9255 18.279ZM55.2996 10.06L53.8444 11.432C54.9176 12.57 55.8997 13.79 56.7839 15.08L58.4341 13.95C58.3011 13.75 58.1641 13.555 58.0241 13.365L57.9891 13.316L57.9691 13.288L57.9551 13.269L57.9481 13.259L57.9351 13.241L57.909 13.2L57.898 13.185L57.879 13.159L57.87 13.147V13.142L57.865 13.134V13.128L57.857 13.117V13.111V13.104L57.849 13.093V13.086V13.079L57.842 13.069V13.062L57.837 13.055L57.829 13.044V13.038L57.823 13.031L57.818 13.024L57.811 13.014V13.009L57.803 12.999V12.992L57.797 12.984V12.979L57.789 12.968V12.962L57.782 12.953L57.777 12.946L57.77 12.937V12.932L57.761 12.92L57.753 12.91L57.744 12.897L57.735 12.885L57.727 12.874L57.717 12.861L57.707 12.847L57.609 12.8L57.599 12.787L57.59 12.774L57.579 12.76L57.569 12.746L57.559 12.733L57.548 12.719L57.526 12.69L57.509 12.66L57.487 12.631L57.476 12.616L57.464 12.601L57.453 12.586L57.43 12.556L57.394 12.51L57.358 12.464L57.334 12.433C57.0009 12 56.6549 11.577 56.2968 11.162L56.2718 11.133L56.2388 11.1L56.2268 11.086L56.2028 11.058L56.1908 11.044L56.1788 11.03L56.1668 11.017L56.1558 11.004L56.1458 10.992L56.1348 10.98L56.1088 10.95L56.0988 10.938L56.0888 10.926L56.0798 10.916L56.0698 10.904L56.0598 10.893L56.0518 10.884L56.0418 10.873L56.0088 10.835V10.829L56.0008 10.82V10.815L55.9917 10.804V10.799L55.9857 10.792L55.9797 10.785L55.9727 10.777L55.9677 10.771L55.9597 10.763L55.9527 10.755L55.9477 10.749L55.9397 10.739L55.9337 10.732L55.9277 10.725V10.72L55.9177 10.709L55.8887 10.7L55.8767 10.686L55.8647 10.672L55.8577 10.664L55.8427 10.647L55.8197 10.621L55.8037 10.604C55.6407 10.423 55.4757 10.244 55.3086 10.067L55.2996 10.06ZM47.4264 3.96L46.4593 5.7C47.8285 6.455 49.1367 7.315 50.3729 8.273L51.5991 6.7L51.5861 6.69L51.5601 6.67L51.5461 6.659L51.5381 6.653L51.524 6.642L51.508 6.63L51.471 6.6L51.456 6.589L51.429 6.569L51.408 6.546L51.38 6.525L51.346 6.5L51.328 6.486L51.3 6.465L51.253 6.429C50.927 6.183 50.5959 5.943 50.2599 5.71L50.2078 5.676L50.0788 5.587L50.0488 5.567L50.0288 5.554L49.9998 5.534L49.9808 5.521L49.9708 5.514L49.9508 5.5L49.9228 5.481L49.9078 5.471L49.8988 5.465L49.8818 5.454L49.8638 5.442L49.8548 5.436L49.8388 5.425L49.8108 5.406L49.7948 5.395L49.7858 5.389L49.7708 5.379L49.7568 5.369L49.7078 5.338L49.6918 5.328L49.6648 5.31L49.6498 5.3L49.6408 5.294L49.6078 5.273L49.5917 5.262L49.5837 5.257L49.5697 5.248L49.5617 5.243H49.5557L49.5437 5.235H49.5387L49.5077 5.208H49.5027L49.4997 5.2H49.4937L49.4817 5.192H49.4757L49.4657 5.185L49.4577 5.18H49.4497H49.4437L49.4317 5.172H49.4257H49.4187L49.4077 5.14H49.4007H49.3937L49.3847 5.134L49.3757 5.128H49.3687H49.3617L49.3517 5.121H49.3447H49.3377L49.3267 5.114H49.3197H49.3127L49.3017 5.107H49.2937H49.2867L49.2767 5.1H49.2697L49.2617 5.095H49.2557L49.2437 5.087H49.2377L49.2287 5.081L49.2207 5.076L49.2077 5.013H49.2017L49.1937 5H49.1877L49.1797 4.995L49.1717 4.99L49.1617 4.984H49.1557L49.1447 4.977H49.1377L49.1287 4.971H49.1227L49.1077 4.95H49.1017L49.0917 4.944H49.0847L49.0747 4.938H49.0687L49.0567 4.93H49.0507L49.0427 4.925L49.0387 4.9H49.0297H49.0237L49.0077 4.887H49.0017L48.9927 4.881H48.9867L48.9747 4.873H48.9687L48.9587 4.867H48.9526L48.9426 4.861H48.9366L48.9236 4.853L48.9136 4.847L48.9016 4.839H48.8966L48.8786 4.8L48.8676 4.793L48.8546 4.785H48.8496L48.8396 4.779H48.8336L48.8226 4.772H48.8176L48.8046 4.764L48.7946 4.758H48.7896L48.7766 4.75L48.7636 4.742L48.7526 4.735L48.7126 4.7L48.7016 4.693L48.6876 4.685L48.6746 4.677L48.6636 4.67L48.6506 4.662L48.6076 4.639L48.5946 4.631L48.5806 4.623L48.5686 4.616L48.5466 4.6L48.5326 4.592L48.5216 4.585L48.5086 4.577L48.4956 4.569L48.4826 4.561L48.4686 4.553L48.4566 4.546L48.4076 4.519L48.3936 4.511L48.3796 4.5L48.3666 4.492L48.3546 4.485L48.3416 4.477L48.3075 4.458L48.2945 4.45L48.2805 4.442L48.2665 4.434L48.2545 4.427L48.2405 4.419L48.2075 4.4L48.1935 4.392L48.1795 4.384L48.1675 4.377L48.1535 4.369L48.1395 4.361L48.1075 4.34L48.0935 4.332L48.0815 4.325L48.0575 4.31L48.0395 4.3L48.0275 4.293L48.0075 4.281L47.9955 4.274L47.9835 4.267L47.9705 4.259L47.9585 4.252L47.9445 4.244L47.9075 4.221L47.8965 4.215L47.8715 4.2H47.8665L47.8545 4.193L47.8425 4.186H47.8365L47.8235 4.179L47.8075 4.164L47.7945 4.156L47.7805 4.148L47.7695 4.142H47.7645L47.7515 4.135H47.7455L47.7355 4.129H47.7285L47.7185 4.123H47.7125L47.6834 4.1H47.6784L47.6694 4.095H47.6634L47.6504 4.088H47.6444L47.6344 4.082H47.6264L47.6174 4.077H47.6114L47.5984 4.07H47.5924L47.5824 4.065H47.5744L47.5644 4.06H47.5574L47.5454 4.053H47.5384H47.5304H47.5234L47.5134 4H47.5074H47.4994L47.4884 3.994H47.4814H47.4744L47.4624 3.988H47.4544H47.4474L47.4364 3.982H47.4284L47.4264 3.96ZM38.0559 0.571L37.6799 2.535C39.2151 2.829 40.7244 3.243 42.1946 3.773L42.8737 1.892C42.0006 1.577 41.1094 1.299 40.2013 1.059L40.1063 1.034L40.0693 1.024L40.0133 1.009L39.9742 1L39.9372 0.99H39.9202H39.9042H39.8872L39.8422 0.966H39.8252H39.8092H39.7922H39.7762H39.7602H39.7442H39.7282H39.7112H39.6972H39.6812H39.6662H39.6502H39.6342H39.6212H39.6052H39.5922H39.5762H39.5712H39.5562H39.5432H39.5372H39.5222H39.4562H39.4442H39.4382H39.4232H39.4182L39.4062 0.86H39.4012H39.3872H39.3812H39.3672H39.3612H39.3501H39.3441H39.3291H39.3231H39.3121H39.3061H39.2921H39.2851H39.2731H39.2661H39.2541H39.2481H39.2331H39.2281H39.2171H39.2061H39.1911H39.1851H39.1741H39.1671H39.1541H39.1481H39.1351H39.1281H39.1171H39.1101H39.0961H39.0901H39.0791H39.0761H39.0611H39.0551H39.0431H39.0361H39.0231H39.0161L39.0061 0.767H38.9961H38.9861H38.9791H38.9651H38.9581H38.9481H38.9411H38.9281H38.9211H38.9091H38.9011H38.8901H38.8831H38.8681H38.8621H38.8511H38.8461H38.8311H38.8241H38.8131H38.8051H38.7931H38.7861H38.7711H38.7661H38.7551H38.7491H38.7341H38.7281H38.717H38.706L38.696 0.7H38.69H38.678H38.67H38.659H38.653H38.638H38.632H38.62H38.615H38.6H38.594H38.582H38.567H38.556H38.54H38.527H38.522L38.506 0.66H38.493H38.477H38.461H38.446H38.441L38.406 0.64H38.393H38.377H38.372H38.358H38.342L38.306 0.62H38.291H38.275H38.26H38.243H38.227H38.21H38.193H38.177H38.16H38.144H38.127L38.0579 0.571H38.0559ZM32.005 0V2C32.3461 2 32.6861 2.006 33.0242 2.017L33.0912 0.017C32.8671 0.011 32.6441 0.005 32.4201 0H32.005Z" fill="#F5895C"/>
<path d="M32.0051 6.98804H30.7979L30.5179 7.00304H30.4879H30.3579H30.3279H30.3179C29.2157 7.07604 28.1195 7.22204 27.0364 7.44004L27.2364 8.42004C28.8076 8.11904 30.4049 7.97404 32.0051 7.98804V6.98804ZM22.2666 8.95404C20.7934 9.57804 19.3832 10.341 18.0559 11.235L18.0479 11.24H18.0409H18.0339H18.0269H18.0199H18.0139H18.0079H18.0019H17.9959H17.9909H17.9859H17.9809H17.9759H17.9709H17.9659L17.9509 11.25L18.516 12.075C19.8362 11.17 21.2434 10.4 22.7167 9.77504L22.3266 8.85404L22.2666 8.95404ZM14.0653 14.565C12.9021 15.761 11.861 17.07 10.9578 18.472L11.799 19.014C12.6671 17.668 13.6673 16.411 14.7834 15.263L14.0663 14.563L14.0653 14.565ZM8.68948 22.918C8.39244 23.679 8.1324 24.458 7.90936 25.255V25.263V25.269V25.281V25.288V25.294V25.299V25.318V25.324V25.331V25.337V25.368V25.374V25.38V25.386V25.393V25.401V25.408V25.415V25.422V25.429V25.437V25.445V25.453V25.461V25.469V25.477V25.485V25.494V25.502V25.51V25.519L7.90236 25.547V25.556C7.71933 26.251 7.56531 26.957 7.44129 27.675L8.42744 27.845C8.67348 26.288 9.07354 24.759 9.62163 23.281L8.68948 22.918ZM8.00138 32.679L7.00122 32.707C7.02222 33.456 7.07523 34.198 7.16125 34.931V35.152V35.161V35.17V35.179V35.188V35.225V35.233V35.242V35.251V35.26V35.269V35.278V35.3V35.309V35.318V35.327L7.16725 35.375C7.27126 36.148 7.41028 36.909 7.58431 37.658L8.55846 37.433C8.21541 35.871 8.02938 34.278 8.00138 32.679ZM10.1527 41.968L9.24357 42.384C9.31058 42.527 9.37659 42.669 9.4436 42.81V42.817V42.824V42.831V42.838V42.844V42.849V42.854V42.86V42.866V42.872V42.878V42.885V42.892C9.97468 43.982 10.5838 45.031 11.2669 46.032L11.2719 46.04L11.2769 46.047L11.2819 46.054V46.061V46.067V46.074V46.081V46.088V46.095L11.3189 46.148V46.154V46.16V46.166V46.171V46.176V46.182V46.188V46.194V46.2V46.207V46.214V46.22V46.227L11.3239 46.235C11.4089 46.357 11.4959 46.478 11.5839 46.599L12.3931 46.011C11.4509 44.716 10.6408 43.33 9.97468 41.874L10.1527 41.968ZM15.7616 49.683L15.0845 50.419L15.1135 50.445L15.1415 50.471C16.3537 51.578 17.6719 52.564 19.0771 53.414L19.5952 52.558C18.225 51.729 16.9398 50.765 15.7606 49.681L15.7616 49.683ZM23.9239 54.617L23.5868 55.559C24.1999 55.778 24.823 55.974 25.4571 56.145H25.4661L25.5311 56.163L25.5681 56.173H25.5771L25.6051 56.18H25.6131L25.6781 56.197H25.6861H25.7041H25.7131H25.7211H25.7391H25.7481H25.7652H25.7832L25.8832 56.223H25.8892H25.8952H25.9022H25.9092H25.9162H25.9232H25.9302H25.9372H26.0192H26.0262H26.0332H26.0402H26.0472H26.0532H26.0852H26.0912H26.0982H26.1202H26.1262H26.1322H26.1392H26.1462H26.1542H26.1622H26.1692H26.1762H26.1832H26.1902H26.1972H26.2092H26.2162H26.2232H26.2302H26.2382H26.2472H26.2552H26.2632H26.2712H26.2802H26.2892H26.2972H26.3052H26.3132H26.3212H26.3282H26.3362H26.3442H26.3522H26.3592H26.3672H26.3752H26.3833H26.3913H26.3993H26.4073H26.4153H26.4233H26.4313H26.4393H26.4473H26.4543H26.4623H26.4713H26.4793H26.4883H26.4973H26.5063H26.5163H26.5253C26.7163 56.265 26.9093 56.305 27.1024 56.342H27.1214H27.1304H27.1394H27.1574H27.1654H27.1734H27.1814H27.1894H27.6494H27.6584H27.6685H27.6775H27.6865H27.6955H27.7055C27.9055 56.375 28.0995 56.406 28.2985 56.434L28.4406 55.444C26.8553 55.217 25.2971 54.831 23.7888 54.293L23.9239 54.617ZM38.1011 55.232C36.5518 55.636 34.9656 55.885 33.3663 55.974L33.4223 56.974C33.5664 56.966 33.7104 56.957 33.8534 56.946H34.4005C35.7357 56.819 37.0579 56.585 38.3551 56.246L38.1021 55.279L38.1011 55.232ZM46.6594 51.026C45.3912 52.004 44.028 52.853 42.5908 53.56L43.0318 54.46C43.2839 54.336 43.5339 54.208 43.781 54.076H43.788H43.795H43.801H43.806H43.811H43.816H43.821H43.827H43.833H43.84H43.847H43.855L43.941 54.029H43.949H43.957H43.965H43.973H43.98H43.987H43.994H44.001H44.008H44.016H44.024H44.032H44.04C44.5621 53.739 45.0722 53.431 45.5702 53.105L45.5782 53.1H45.5852L45.5932 53.095H45.6003H45.6073H45.6143H45.6213H45.6283H45.6343H45.6403H45.6463H45.6523H45.6593H45.6663H45.6733H45.6803L45.6883 53.09L45.6963 53.085L45.7443 53.053H45.7493H45.7553H45.7603H45.7653H45.7703H45.7753H45.7823C46.2013 52.768 46.6114 52.472 47.0115 52.163L46.4004 51.371L46.6594 51.026ZM52.9144 43.826C52.1243 45.219 51.1971 46.53 50.147 47.739L50.9021 48.395C51.4492 47.766 51.9632 47.11 52.4463 46.427V46.421V46.415V46.409V46.403V46.397V46.391V46.385V46.379V46.374V46.369V46.364V46.358V46.352V46.346V46.341L52.4513 46.333L52.4563 46.325V46.319V46.312V46.306V46.3V46.294V46.288V46.282V46.277V46.271V46.265V46.259V46.253V46.247V46.24L52.4613 46.232V46.225L52.4673 46.217C52.8704 45.629 53.2494 45.024 53.6025 44.401L52.7324 43.908L52.9144 43.826ZM55.8669 34.761C55.6848 36.351 55.3438 37.92 54.8487 39.442L55.7998 39.752C56.0469 38.995 56.2569 38.222 56.4319 37.434V37.415V37.397V37.388V37.38V37.372V37.365V37.356V37.348V37.339V37.332V37.324V37.317V37.238V37.23V37.212C56.593 36.451 56.718 35.679 56.808 34.894L55.8138 34.78L55.8669 34.761ZM56.0229 24.975L55.0627 25.255C55.5108 26.792 55.8038 28.37 55.9379 29.966L56.938 29.882C56.799 28.22 56.493 26.575 56.0259 24.974L56.0229 24.975ZM51.3902 16.188L50.616 16.821C51.6292 18.061 52.5163 19.4 53.2645 20.816L54.1496 20.349C53.3705 18.874 52.4473 17.48 51.3902 16.188ZM43.707 9.88704L43.2389 10.771C44.6541 11.522 45.9903 12.411 47.2285 13.427L47.8626 12.654C46.5734 11.596 45.1812 10.669 43.707 9.88704ZM34.1755 7.08104L34.0895 8.08104C35.6847 8.21804 37.2629 8.51504 38.7992 8.96604L39.0812 8.00004C38.5642 7.84904 38.0391 7.71404 37.506 7.59404H37.487H37.468L37.431 7.58604H37.422H37.413H37.404H37.396H37.388H37.38H37.372H37.364H37.356H37.348H37.34H37.332H37.324H37.316H37.307H37.299H37.291H37.283H37.2749H37.2669H37.2599H37.2519H37.2059H37.1979H36.5898H36.5818H36.5728H36.5648H36.5568H36.5478H36.5388H36.5298H36.5208H36.5018C35.7387 7.44804 34.9646 7.34504 34.1795 7.27704L34.1755 7.08104Z" fill="#F8E3CA"/>
</svg>
